inDegrees=yes
name=ik_lifting_orientations
DataType=double
version=3
OpenSimVersion=4.5-2024-01-10-34fd6af
endheader
time	pelvis_tilt	pelvis_list	pelvis_rotation	pelvis_tx	pelvis_ty	pelvis_tz	hip_flexion_r	hip_adduction_r	hip_rotation_r	knee_angle_r	knee_angle_r_beta	ankle_angle_r	subtalar_angle_r	mtp_angle_r	hip_flexion_l	hip_adduction_l	hip_rotation_l	knee_angle_l	knee_angle_l_beta	ankle_angle_l	subtalar_angle_l	mtp_angle_l	lumbar_extension	lumbar_bending	lumbar_rotation	arm_flex_r	arm_add_r	arm_rot_r	elbow_flex_r	pro_sup_r	wrist_flex_r	wrist_dev_r	arm_flex_l	arm_add_l	arm_rot_l	elbow_flex_l	pro_sup_l	wrist_flex_l	wrist_dev_l
1.66	1.189641344901297	1.462382162330485	-93.39931147058503	0	0.9399999998679526	0	45.37646299210137	-10.26848993966512	0	60.39380503582521	1.054070745682682	-5.077122647472737	0	0	45.37646299210137	-10.26848993966512	0	60.39380503582521	1.054070745682682	-5.077122647472737	0	0	3.176900875270368	-5.178538381781896	45.84071882065734	74.05180723228028	-11.46668003915538	-40.52226908181672	71.36280202726687	1.052297184028584	0	0	0	-11.58377595055178	0	88.98443073865047	1.052297184028584	0	0
1.67	0.5885750859663073	1.776302857582734	-94.26293002190899	0	0.9399999998679526	0	45.37632534734961	-10.2681470263668	0	60.39369204882236	1.05406877368747	-5.076994175082285	0	0	45.37632534734961	-10.2681470263668	0	60.39369204882236	1.05406877368747	-5.076994175082285	0	0	3.7319915089558	-5.536892940415379	47.638851760786	75.58462652319422	-12.41942525972904	-42.86738189588102	73.31804780622977	1.052029438463854	0	0	0	-11.58441609936699	0	88.98468909282077	1.052029438463854	0	0
1.68	0.8541090313744137	2.653416720449519	-93.95054947445789	0	0.9399999998679526	0	45.3761072671783	-10.26760431126267	0	60.39351304150105	1.054065649420328	-5.07679094893541	0	0	45.3761072671783	-10.26760431126267	0	60.39351304150105	1.054065649420328	-5.07679094893541	0	0	4.048178896135632	-5.268598886270217	48.12257190246156	78.83384006927251	-15.45959625809561	-41.75066201748185	69.64086733951621	1.051605188905835	0	0	0	-11.58543047687104	0	88.98509846148154	1.051605188905835	0	0
1.69	0.8618763991954314	2.678784271913338	-93.94124387199308	0	0.9399999998679526	0	45.37599943077104	-10.26733595926062	0	60.39342458329516	1.054064105533385	-5.076690484482506	0	0	45.37599943077104	-10.26733595926062	0	60.39342458329516	1.054064105533385	-5.076690484482506	0	0	4.091453642201128	-5.276079769720507	48.10450751970919	79.83243475244235	-15.43441302817389	-41.74773031719059	68.90468670958961	1.051395439881946	0	0	0	-11.585931902573	0	88.98530085338737	1.051395439881946	0	0
1.7	0.8490514871952014	2.662998359157569	-93.95267826294777	0	0.9399999998679526	0	45.37587324772211	-10.26702720612855	0	60.3933197630278	1.054062276074597	-5.076575302364087	0	0	45.37587324772211	-10.26702720612855	0	60.3933197630278	1.054062276074597	-5.076575302364087	0	0	4.813236454346669	-5.713528208612643	48.9319230208734	80.09285317684459	-17.57199439391102	-43.12394020488485	66.69440297537335	1.0511487843272	0	0	0	-11.58652401056068	0	88.98553885734574	1.0511487843272	0	0
1.71	0.8588603471641969	2.667467848047218	-93.95048550358422	0	0.9399999998679526	0	45.37573592058481	-10.26669218288094	0	60.39320551827716	1.054060282127545	-5.076450427420703	0	0	45.37573592058481	-10.26669218288094	0	60.39320551827716	1.054060282127545	-5.076450427420703	0	0	4.575002309315437	-6.431757315537728	50.51030763649163	82.12352766191746	-20.44010020691631	-42.77349749978898	64.31794089873158	1.050880166169734	0	0	0	-11.58716917395952	0	88.98579805356218	1.050880166169734	0	0
1.72	0.8509740550106747	2.643427075722201	-93.94879882495947	0	0.9399999998679526	0	45.37550465337051	-10.26611752615791	0	60.39301598792058	1.05405697419879	-5.076235499178879	0	0	45.37550465337051	-10.26611752615791	0	60.39301598792058	1.05405697419879	-5.076235499178879	0	0	3.940178500940374	-5.955638833709955	51.30246616542924	82.26538385823848	-21.85003663457529	-41.80977101702603	63.18753128312787	1.050430380458466	0	0	0	-11.58824424241579	0	88.98623206267324	1.050430380458466	0	0
1.73	1.198024491767225	3.23978356273217	-94.17157974726319	0	0.9399999998679526	0	45.37524645849649	-10.26549085568289	0	60.39280054907633	1.054053214081621	-5.076002234847691	0	0	45.37524645849649	-10.26549085568289	0	60.39280054907633	1.054053214081621	-5.076002234847691	0	0	4.109310127503808	-6.830186743600403	51.62213652336294	84.77265430051411	-22.76899805466845	-40.76613973489039	59.96965536007046	1.049924656961355	0	0	0	-11.58946024251801	0	88.98672004764894	1.049924656961355	0	0
1.74	1.477974528260912	4.126487677429719	-93.85414967724184	0	0.9399999998679526	0	45.37513193664824	-10.26520994512514	0	60.3927059161035	1.054051562424664	-5.075897503250032	0	0	45.37513193664824	-10.26520994512514	0	60.3927059161035	1.054051562424664	-5.075897503250032	0	0	5.742864688600543	-7.495651924294391	52.10804399374874	84.23374462243366	-23.99795249320416	-41.63435822032957	58.15293677243105	1.049701157072176	0	0	0	-11.58999596103079	0	88.98693570812871	1.049701157072176	0	0
1.75	1.489154133263562	4.118213498866917	-93.87230549028811	0	0.9399999998679526	0	45.37492095838903	-10.2646880226254	0	60.39253289206739	1.054048542585549	-5.075702645073437	0	0	45.37492095838903	-10.2646880226254	0	60.39253289206739	1.054048542585549	-5.075702645073437	0	0	5.755509802421948	-7.501158574787906	52.1570996430572	86.08160933241396	-24.57345484725413	-40.20246303034316	56.21694136568746	1.049290574532031	0	0	0	-11.59097772671101	0	88.98733188916452	1.049290574532031	0	0
1.76	1.487096710921409	4.102987182010206	-93.85800631393536	0	0.9399999998679526	0	45.37482736077609	-10.26445666396792	0	60.39245612760811	1.054047202792986	-5.075616297960317	0	0	45.37482736077609	-10.26445666396792	0	60.39245612760811	1.054047202792986	-5.075616297960317	0	0	5.726465123295188	-7.493706857179622	52.13821610522147	86.3353484162124	-24.6159155691506	-41.1845813601323	55.95448129546327	1.049108406835744	0	0	0	-11.59141334537681	0	88.98750766718717	1.049108406835744	0	0
1.77	1.488534131931452	4.117135363349246	-93.87083669468738	0	0.9399999998679526	0	45.37461500537187	-10.26393158131264	0	60.39228214890394	1.05404416629177	-5.0754203665452	0	0	45.37461500537187	-10.26393158131264	0	60.39228214890394	1.05404416629177	-5.0754203665452	0	0	5.173129775716571	-7.042822293595517	52.9486862628147	87.72297506382696	-25.50977277715257	-40.27844753192796	55.20554074498217	1.048695231615404	0	0	0	-11.59240107849268	0	88.98790634996092	1.048695231615404	0	0
